# xmcd
#
# Track frame offsets:
# 150
# 19709
# 39004
# 65095
# 80461
# 100947
# 122861
# 142873
# 164123
# 180175
# 201049
# 222424
#
# Disc length: 3263 seconds
#
# Revision: 7
# Processed by: cddbd v1.4PL0 Copyright (c) Steve Scherf et al.
# Submitted via: Axialis_AX_CDPlayer 2.6
#
DISCID=a00cbd0c
DTITLE=周蕙 - 好想好好愛你
DYEAR=2000
DGENRE=
TTITLE0=好想好好愛你
TTITLE1=Angel Face
TTITLE2=替身
TTITLE3=太茫
TTITLE4=事到如今
TTITLE5=話題
TTITLE6=愛過不傷心
TTITLE7=不哭
TTITLE8=換季
TTITLE9=沒有你
TTITLE10=相遇太早
TTITLE11=溫度
EXTD=YEAR: 2000
EXTT0=
EXTT1=
EXTT2=
EXTT3=
EXTT4=
EXTT5=
EXTT6=
EXTT7=
EXTT8=
EXTT9=
EXTT10=
EXTT11=
PLAYORDER=
